<?xml version="1.0" encoding="UTF-8"?>
<svg version="1.1" xmlns="http://www.w3.org/2000/svg" width="400" height="400">
<path d="M0 0 C1.23391228 -0.01058945 1.23391228 -0.01058945 2.49275208 -0.02139282 C36.44592663 -0.24667095 36.44592663 -0.24667095 51.171875 3.203125 C52.06503418 3.40180176 52.95819336 3.60047852 53.87841797 3.80517578 C80.05158526 9.7223948 105.43787555 20.28134731 127.171875 36.203125 C128.73228516 37.33814453 128.73228516 37.33814453 130.32421875 38.49609375 C137.93010108 44.13609215 144.93699192 50.32606186 151.77490234 56.86914062 C152.96618746 58.00671173 154.17117264 59.12990724 155.37890625 60.25 C187.35060068 90.72403868 210.20998236 140.36129218 211.33300781 184.46582031 C211.35254956 185.98756911 211.36630412 187.50940058 211.375 189.03125 C211.38205963 189.85385818 211.38911926 190.67646637 211.39639282 191.52400208 C211.62167095 225.47717663 211.62167095 225.47717663 208.171875 240.203125 C207.87385986 241.54286377 207.87385986 241.54286377 207.56982422 242.90966797 C201.6526052 269.08283526 191.09365269 294.46912555 175.171875 316.203125 C174.41519531 317.24339844 173.65851563 318.28367187 172.87890625 319.35546875 C167.23890785 326.96135108 161.04893814 333.96824192 154.50585938 340.80615234 C153.36828827 341.99743746 152.24509276 343.20242264 151.125 344.41015625 C120.65096132 376.38185068 71.01370782 399.24123236 26.90917969 400.36425781 C25.38743089 400.38379956 23.86559942 400.39755412 22.34375 400.40625 C21.10983772 400.41683945 21.10983772 400.41683945 19.85099792 400.42764282 C-14.10217663 400.65292095 -14.10217663 400.65292095 -28.828125 397.203125 C-30.16786377 396.90510986 -30.16786377 396.90510986 -31.53466797 396.60107422 C-57.70783526 390.6838552 -83.09412555 380.12490269 -104.828125 364.203125 C-105.86839844 363.44644531 -106.90867187 362.68976563 -107.98046875 361.91015625 C-115.58635108 356.27015785 -122.59324192 350.08018814 -129.43115234 343.53710938 C-130.62243746 342.39953827 -131.82742264 341.27634276 -133.03515625 340.15625 C-165.00685068 309.68221132 -187.86623236 260.04495782 -188.98925781 215.94042969 C-189.00879956 214.41868089 -189.02255412 212.89684942 -189.03125 211.375 C-189.03830963 210.55239182 -189.04536926 209.72978363 -189.05264282 208.88224792 C-189.27792095 174.92907337 -189.27792095 174.92907337 -185.828125 160.203125 C-185.62944824 159.30996582 -185.43077148 158.41680664 -185.22607422 157.49658203 C-179.3088552 131.32341474 -168.74990269 105.93712445 -152.828125 84.203125 C-152.07144531 83.16285156 -151.31476563 82.12257813 -150.53515625 81.05078125 C-144.89515785 73.44489892 -138.70518814 66.43800808 -132.16210938 59.60009766 C-131.02453827 58.40881254 -129.90134276 57.20382736 -128.78125 55.99609375 C-97.01652998 22.67028706 -45.85508406 0.26201706 0 0 Z " fill="#FEFEFE" transform="translate(188.828125,-0.203125)"/>
<path d="M0 0 C7.79100433 -0.0420504 15.58159268 -0.08210867 23.372612 -0.10350037 C27.00146895 -0.11401971 30.63023101 -0.12805496 34.2590332 -0.15087891 C37.76036571 -0.17276092 41.26160674 -0.18460067 44.7630024 -0.18975449 C46.73533778 -0.1951966 48.70763685 -0.21078449 50.67991638 -0.22659302 C66.71059622 -0.228577 78.86384476 4.1153916 90.5859375 15.34765625 C101.30505038 27.12480454 103.81112113 40.29939926 103.17919922 55.7421875 C102.23094594 67.68966211 95.72213886 79.83417068 87 88 C79.13747228 94 79.13747228 94 76 94 C79.34203881 101.13752006 83.25039233 107.87057335 87.3359375 114.59765625 C92.14875831 122.5238971 96.83042869 130.52930961 101.53759766 138.51855469 C102.44529388 140.05875911 103.35368967 141.59855175 104.26318359 143.13769531 C105.28172882 144.86138724 106.2972868 146.58684349 107.3125 148.3125 C108.11107422 149.66794922 108.11107422 149.66794922 108.92578125 151.05078125 C110 153 110 153 110 154 C86.01172314 157.87172719 86.01172314 157.87172719 76 154 C68.20797115 147.72326094 64.61654268 137.97118535 60.78369141 128.97412109 C58.08166458 122.75536226 54.47037593 117.08708469 50.9375 111.3125 C49.77204945 109.35494131 48.61370915 107.39311938 47.46484375 105.42578125 C46.986521 104.61536377 46.50819824 103.80494629 46.01538086 102.9699707 C45 101 45 101 45 99 C39.72 99 34.44 99 29 99 C29 117.15 29 135.3 29 154 C19.43 154 9.86 154 0 154 C0 126.28 0 98.56 0 70 C29 69.75 29 69.75 38.11328125 69.70214844 C40.51304023 69.6727675 42.91278211 69.64193972 45.3125 69.609375 C47.16198242 69.60768311 47.16198242 69.60768311 49.04882812 69.60595703 C57.3147886 69.46908127 63.29874911 68.70125089 69.375 62.625 C72.85198466 57.00833248 73.88259168 51.50911364 73 45 C71.13877202 39.09906129 68.06517153 35.44431664 63 32 C58.91979446 30.39304423 55.45920145 29.73945602 51.08642578 29.68115234 C49.94569611 29.66128265 48.80496643 29.64141296 47.62966919 29.62094116 C45.80591263 29.60361435 45.80591263 29.60361435 43.9453125 29.5859375 C42.68862762 29.56657135 41.43194275 29.5472052 40.13717651 29.5272522 C36.81312312 29.47772276 33.48917663 29.43640102 30.16497803 29.39910889 C26.76613609 29.35894066 23.36745615 29.30801127 19.96875 29.2578125 C13.31256299 29.16028595 6.65649939 29.0806077 0 29 C0 19.43 0 9.86 0 0 Z " fill="#595C5F" transform="translate(208,124)"/>
<path d="M0 0 C28.05 0 56.1 0 85 0 C85 9.9 85 19.8 85 30 C66.85 30 48.7 30 30 30 C30 40.56 30 51.12 30 62 C48.15 62 66.3 62 85 62 C85 71.57 85 81.14 85 91 C66.85 91 48.7 91 30 91 C30 102.55 30 114.1 30 126 C48.15 126 66.3 126 85 126 C85 135.24 85 144.48 85 154 C56.95 154 28.9 154 0 154 C0 103.18 0 52.36 0 0 Z " fill="#1F6897" transform="translate(110,124)"/>
<path d="M0 0 C1.03511719 -0.04898438 2.07023437 -0.09796875 3.13671875 -0.1484375 C6.43557245 0.395285 8.52372772 1.2412211 11.04260635 3.46372032 C13.95297794 7.84403522 13.07874062 13.64649223 12.99365234 18.70239258 C12.991959 20.07257004 12.99291167 21.44275295 12.99630737 22.81292725 C12.99802717 26.52580149 12.96278207 30.23750997 12.92086363 33.95011353 C12.88332575 37.83246064 12.8798289 41.71483524 12.87271118 45.59733582 C12.85407114 52.94623996 12.80484611 60.29460781 12.74461424 67.64327592 C12.67752242 76.01075048 12.64455348 84.37825082 12.61444163 92.74592745 C12.55174583 109.95592838 12.44622782 127.16540747 12.3125 144.375 C11.3225 144.375 10.3325 144.375 9.3125 144.375 C8.9825 136.455 8.6525 128.535 8.3125 120.375 C6.9925 121.365 5.6725 122.355 4.3125 123.375 C-1.83651961 124.03382353 -1.83651961 124.03382353 -4.625 121.875 C-7.05103143 120.11061351 -7.83715064 120.24789385 -10.75 120.375 C-14.6875 120.375 -14.6875 120.375 -16.6875 119.3125 C-18.21440415 116.35412322 -17.87218872 113.63783401 -17.6875 110.375 C-18.244375 110.148125 -18.80125 109.92125 -19.375 109.6875 C-22.66370094 107.82094001 -24.44095817 106.49519699 -26.6875 103.375 C-27.11348885 99.34125375 -26.97748316 95.41543202 -26.6875 91.375 C-27.49703125 91.10300781 -28.3065625 90.83101563 -29.140625 90.55078125 C-29.98109375 90.16277344 -30.8215625 89.77476562 -31.6875 89.375 C-32.4375 86.5625 -32.4375 86.5625 -32.6875 83.375 C-33.50258599 78.48448408 -34.20820481 75.46686074 -38.3125 72.4375 C-40.6875 70.375 -40.6875 70.375 -41.1875 67.8125 C-40.61395247 65.01645579 -39.97286295 64.04507292 -37.6875 62.375 C-37.0275 62.375 -36.3675 62.375 -35.6875 62.375 C-35.501875 60.76625 -35.501875 60.76625 -35.3125 59.125 C-34.6875 55.375 -34.6875 55.375 -33.5625 53.25 C-32.44242476 51.36786053 -32.44242476 51.36786053 -33.25 49.1875 C-33.82350948 45.50065333 -32.72295442 43.17314137 -31.44921875 39.7265625 C-30.70182568 37.41922594 -30.35704136 35.34547641 -30.125 32.9375 C-29.6875 29.375 -29.6875 29.375 -27.6875 27.375 C-25.1875 27.125 -25.1875 27.125 -22.6875 27.375 C-22.0275 28.035 -21.3675 28.695 -20.6875 29.375 C-18.4367284 29.31607928 -16.18670102 29.22766063 -13.9375 29.125 C-7.57660889 29.14287422 -4.16469991 31.04046349 0.37011719 35.44824219 C3.11473116 38.35254279 5.74650636 41.31083194 8.3125 44.375 C8.79890581 39.08199919 8.79890581 39.08199919 7 34.3515625 C6.443125 33.90554687 5.88625 33.45953125 5.3125 33 C4.3225 32.13375 3.3325 31.2675 2.3125 30.375 C2.3125 29.715 2.3125 29.055 2.3125 28.375 C1.67441406 28.25382812 1.03632812 28.13265625 0.37890625 28.0078125 C-0.44738281 27.84023437 -1.27367187 27.67265625 -2.125 27.5 C-2.94871094 27.33757812 -3.77242187 27.17515625 -4.62109375 27.0078125 C-5.64396484 26.69457031 -5.64396484 26.69457031 -6.6875 26.375 C-7.1825 25.385 -7.1825 25.385 -7.6875 24.375 C-10.01133502 24.093235 -12.34926824 23.92328316 -14.6875 23.8125 C-21.59099947 23.47150053 -21.59099947 23.47150053 -22.6875 22.375 C-23.39399351 15.31006494 -23.39399351 15.31006494 -20.5625 11.5625 C-17.70644618 9.38941557 -14.88765807 7.97507904 -11.6875 6.375 C-8.91597788 3.85443955 -8.91597788 3.85443955 -6.6875 1.375 C-4.90307894 -0.40942106 -2.41735845 0.0773079 0 0 Z " fill="#256391" transform="translate(91.6875,133.625)"/>
<path d="M0 0 C7.62153923 0.98009642 14.20880971 2.35886799 21 6 C22.23556641 6.6496875 22.23556641 6.6496875 23.49609375 7.3125 C35.51202921 14.04288698 43.05004452 23.43895148 47.25390625 36.4921875 C48.11998919 40.56413767 48.15733997 44.35547192 48.1875 48.5 C48.30646948 58.83477901 52.46525188 67.09048191 57.18969727 76.10913086 C58 78 58 78 58 81 C54.17679443 82.42258812 51.08718695 83.24042276 47 83 C46.67 85.97 46.34 88.94 46 92 C31.18526658 93.77776801 31.18526658 93.77776801 26.03417969 90.90283203 C22.09669579 87.77446504 19.04401613 83.97718173 16 80 C15.22398437 79.09894531 14.44796875 78.19789063 13.6484375 77.26953125 C13.10445313 76.52058594 12.56046875 75.77164063 12 75 C12.5 72.375 12.5 72.375 14 69 C14.70002233 67.15052466 15.38649555 65.29588862 16.0625 63.4375 C16.40410156 62.52871094 16.74570312 61.61992187 17.09765625 60.68359375 C21.6137037 47.25275132 19.62754303 31.45988632 13.75 18.8125 C11.05854683 13.7548448 7.65074533 9.39473609 4 5 C3.195625 3.989375 2.39125 2.97875 1.5625 1.9375 C1.046875 1.298125 0.53125 0.65875 0 0 Z " fill="#777878" transform="translate(300,129)"/>
<path d="M0 0 C2.5 0.25 2.5 0.25 4.5 2.25 C6.70900423 2.137477 8.91724256 2.0097894 11.125 1.875 C17.92090497 1.84068993 21.48293194 4.36643915 26.27294922 9.03857422 C29.44062268 12.36631059 32.53025116 15.74415288 35.5 19.25 C34.51 20.24 33.52 21.23 32.5 22.25 C32.14397705 21.79560547 31.7879541 21.34121094 31.42114258 20.87304688 C24.45321043 11.68491775 24.45321043 11.68491775 14.78125 6.1484375 C8.81285742 6.01217836 8.81285742 6.01217836 3.7734375 8.77734375 C3.35320312 9.26332031 2.93296875 9.74929687 2.5 10.25 C0.3125 10.9375 0.3125 10.9375 -1.5 11.25 C-1.5 12.57 -1.5 13.89 -1.5 15.25 C-0.84 15.724375 -0.18 16.19875 0.5 16.6875 C2.5 18.25 2.5 18.25 2.90625 20.62890625 C2.5 23.25 2.5 23.25 0.53125 25.09375 C-1.15625 26.19791667 -2.84375 27.30208333 -4.53125 28.40625 C-6.7313033 30.10124475 -6.7313033 30.10124475 -6.96875 32.78125 C-6.64220569 35.21651573 -6.64220569 35.21651573 -5.5078125 37.015625 C-0.50061273 40.09398128 7.87521701 39.55453092 13.5 38.25 C17.3208186 35.78248761 19.91057127 32.96815408 22.5 29.25 C21.22721803 25.74984958 19.7584993 22.95863408 17.5 20 C16.984375 19.31421875 16.46875 18.6284375 15.9375 17.921875 C14.58571636 16.13175829 14.58571636 16.13175829 12.5 15.25 C12.5 17.56 12.5 19.87 12.5 22.25 C13.82 22.91 15.14 23.57 16.5 24.25 C16.86 29.65 16.86 29.65 15.375 32.125 C12.61909116 33.77854531 10.64924548 33.64365568 7.5 33.25 C5.5625 32.1875 5.5625 32.1875 4.5 30.25 C4.625 26.6875 4.625 26.6875 5.5 23.25 C6.49 22.59 7.48 21.93 8.5 21.25 C9.08348752 18.5943272 9.08348752 18.5943272 9.1875 15.625 C9.25324219 14.62210938 9.31898437 13.61921875 9.38671875 12.5859375 C9.42410156 11.81507813 9.46148437 11.04421875 9.5 10.25 C11.81 10.25 14.12 10.25 16.5 10.25 C17.03625 11.405 17.5725 12.56 18.125 13.75 C21.8798589 21.87080971 21.8798589 21.87080971 28.6640625 26.97265625 C31.1030911 27.32519835 31.1030911 27.32519835 34.5 27.25 C34.5 27.58 34.5 27.91 34.5 28.25 C33.345 28.20875 32.19 28.1675 31 28.125 C27.75860463 28.49347123 26.64862107 29.10269416 24.29296875 31.4375 C22.91308148 33.19884034 21.56749557 34.98772421 20.26171875 36.8046875 C16.4505342 42.09471306 16.4505342 42.09471306 13.4152832 42.59057617 C12.63499756 42.57486572 11.85471191 42.55915527 11.05078125 42.54296875 C10.20322266 42.53330078 9.35566406 42.52363281 8.48242188 42.51367188 C7.60134766 42.48853516 6.72027344 42.46339844 5.8125 42.4375 C4.91982422 42.42396484 4.02714844 42.41042969 3.10742188 42.39648438 C0.90433834 42.36114079 -1.29752582 42.31180493 -3.5 42.25 C-5.63181214 45.99287627 -5.45685425 48.03984129 -4.5 52.25 C-2.85 52.25 -1.2 52.25 0.5 52.25 C-1.48 52.745 -1.48 52.745 -3.5 53.25 C-3.5 53.91 -3.5 54.57 -3.5 55.25 C-1.85 55.58 -0.2 55.91 1.5 56.25 C1.17 57.9 0.84 59.55 0.5 61.25 C-1.15 60.92 -2.8 60.59 -4.5 60.25 C-4.5 59.26 -4.5 58.27 -4.5 57.25 C-5.16 57.25 -5.82 57.25 -6.5 57.25 C-6.83 58.24 -7.16 59.23 -7.5 60.25 C-7.4071875 58.4246875 -7.4071875 58.4246875 -7.3125 56.5625 C-7.32642102 52.61589062 -7.96768507 50.39356337 -10.5 47.25 C-11.386875 46.59 -12.27375 45.93 -13.1875 45.25 C-15.5 43.25 -15.5 43.25 -16 40.6875 C-15.42645247 37.89145579 -14.78536295 36.92007292 -12.5 35.25 C-11.84 35.25 -11.18 35.25 -10.5 35.25 C-10.314375 33.64125 -10.314375 33.64125 -10.125 32 C-9.5 28.25 -9.5 28.25 -8.375 26.125 C-7.25492476 24.24286053 -7.25492476 24.24286053 -8.0625 22.0625 C-8.63600948 18.37565333 -7.53545442 16.04814137 -6.26171875 12.6015625 C-5.51432568 10.29422594 -5.16954136 8.22047641 -4.9375 5.8125 C-4.44330571 1.78834652 -4.16505323 0.41650532 0 0 Z " fill="#3277A2" transform="translate(66.5,160.75)"/>
<path d="M0 0 C1.65322266 0.01740234 1.65322266 0.01740234 3.33984375 0.03515625 C4.44457031 0.04417969 5.54929687 0.05320313 6.6875 0.0625 C7.54214844 0.07410156 8.39679688 0.08570313 9.27734375 0.09765625 C9.40109375 0.90203125 9.52484375 1.70640625 9.65234375 2.53515625 C9.85859375 3.38078125 10.06484375 4.22640625 10.27734375 5.09765625 C10.93734375 5.42765625 11.59734375 5.75765625 12.27734375 6.09765625 C12.27734375 14.67765625 12.27734375 23.25765625 12.27734375 32.09765625 C10.29734375 32.59265625 10.29734375 32.59265625 8.27734375 33.09765625 C6.52734375 31.78515625 6.52734375 31.78515625 5.27734375 30.09765625 C5.27734375 29.43765625 5.27734375 28.77765625 5.27734375 28.09765625 C4.63925781 27.97648437 4.00117187 27.8553125 3.34375 27.73046875 C2.51746094 27.56289062 1.69117187 27.3953125 0.83984375 27.22265625 C0.01613281 27.06023437 -0.80757812 26.8978125 -1.65625 26.73046875 C-2.33816406 26.52164063 -3.02007812 26.3128125 -3.72265625 26.09765625 C-4.05265625 25.43765625 -4.38265625 24.77765625 -4.72265625 24.09765625 C-7.04649127 23.81589125 -9.38442449 23.64593941 -11.72265625 23.53515625 C-18.62615572 23.19415678 -18.62615572 23.19415678 -19.72265625 22.09765625 C-20.42914976 15.03272119 -20.42914976 15.03272119 -17.59765625 11.28515625 C-14.74160243 9.11207182 -11.92281432 7.69773529 -8.72265625 6.09765625 C-5.95113413 3.5770958 -5.95113413 3.5770958 -3.72265625 1.09765625 C-2.72265625 0.09765625 -2.72265625 0.09765625 0 0 Z " fill="#3285B3" transform="translate(88.72265625,133.90234375)"/>
<path d="M0 0 C5.39665303 0.07735004 7.99068909 0.85248767 11.8125 4.6875 C13.21371938 6.33218448 14.58935026 7.99904062 15.9375 9.6875 C17.29062537 11.12598022 18.64471206 12.5635571 20 14 C22.77489692 17.00141911 22.9375 17.30845107 22.9375 21.6875 C18.12770551 22.73690971 18.12770551 22.73690971 14.9375 21.6875 C10.60728189 17.30315417 5.89421813 11.94413282 4.9375 5.6875 C2.6275 5.3575 0.3175 5.0275 -2.0625 4.6875 C-2.01609375 5.43515625 -1.9696875 6.1828125 -1.921875 6.953125 C-1.62098228 15.16319771 -1.62098228 15.16319771 -4.0625 18.0625 C-4.7225 18.59875 -5.3825 19.135 -6.0625 19.6875 C-6.56309916 22.27267587 -6.56309916 22.27267587 -6.0625 24.6875 C-4.17749729 27.00313087 -4.17749729 27.00313087 -1.0625 26.9375 C2.05249729 27.00313087 2.05249729 27.00313087 3.9375 24.6875 C4.35416667 21.6875 4.35416667 21.6875 3.9375 18.6875 C2.9475 18.0275 1.9575 17.3675 0.9375 16.6875 C0.75 13.0625 0.75 13.0625 0.9375 9.6875 C4.82747191 11.18496706 6.40698052 13.39172078 8.6875 16.8125 C9.30109375 17.72257812 9.9146875 18.63265625 10.546875 19.5703125 C11.00578125 20.26898438 11.4646875 20.96765625 11.9375 21.6875 C9.558931 26.78935814 6.89291458 30.82467452 1.9375 33.6875 C-3.66961038 34.68133513 -9.42159631 34.14902848 -15.0625 33.6875 C-15.5575 32.2025 -15.5575 32.2025 -16.0625 30.6875 C-17.0525 30.3575 -18.0425 30.0275 -19.0625 29.6875 C-19.4375 27.5 -19.4375 27.5 -19.0625 24.6875 C-16.22816396 21.97913445 -13.31960495 19.8589033 -10.0625 17.6875 C-9.47899495 15.23040625 -9.47899495 15.23040625 -10.0625 12.6875 C-11.9629467 10.84434329 -11.9629467 10.84434329 -14.0625 9.6875 C-13.875 7.3125 -13.875 7.3125 -13.0625 4.6875 C-10.625 3.5 -10.625 3.5 -8.0625 2.6875 C-5.37616763 0.00116763 -3.75732792 0.1977541 0 0 Z " fill="#F3F9FA" transform="translate(78.0625,166.3125)"/>
<path d="M0 0 C0 5.61 0 11.22 0 17 C-0.66 17 -1.32 17 -2 17 C-2 17.66 -2 18.32 -2 19 C-4.652864 22.19904189 -6.22805414 23.81065479 -10.3125 24.8125 C-11.199375 24.874375 -12.08625 24.93625 -13 25 C-13.38063221 27.3260857 -13.71269945 29.66055264 -14 32 C-12.88163776 33.34404775 -12.88163776 33.34404775 -10 33.125 C-7.11836224 33.34404775 -7.11836224 33.34404775 -6 32 C-6.103125 31.0925 -6.20625 30.185 -6.3125 29.25 C-6 26 -6 26 -4.65698242 24.58886719 C-3.10465495 23.39257812 -1.55232747 22.19628906 0 21 C0.17479953 24.56187657 0.28101143 28.12264773 0.375 31.6875 C0.45041016 33.19860352 0.45041016 33.19860352 0.52734375 34.74023438 C0.67119124 42.00453283 0.67119124 42.00453283 -1.23046875 44.82495117 C-4.17405222 47.44254568 -5.7939196 48.00343467 -9.75 47.9375 C-13 47 -13 47 -15 45 C-15.33 43.824375 -15.66 42.64875 -16 41.4375 C-16.33 40.303125 -16.66 39.16875 -17 38 C-17.66 37.67 -18.32 37.34 -19 37 C-20.37768299 22.6491355 -20.37768299 22.6491355 -15.1875 16.1875 C-12.87839318 13.67650406 -10.84904149 11.89936099 -8 10 C-7.32215008 7.66989091 -6.65583207 5.33640176 -6 3 C-3.92890413 0.20852296 -3.57643833 0 0 0 Z " fill="#F3F7F8" transform="translate(101,206)"/>
<path d="M0 0 C4.93088881 2.20149643 8.261411 5.34061434 11 10 C11.81036569 14.04971631 11.6714794 17.89121889 11.4375 22 C11.40591797 23.06089844 11.37433594 24.12179688 11.34179688 25.21484375 C11.25987829 27.81283304 11.14527125 30.40491272 11 33 C7.17695439 33.61130899 3.80307495 33.81582196 0 33 C-3.10432897 30.18574645 -4.80377542 26.83176541 -6.6875 23.125 C-7.21021484 22.18785156 -7.73292969 21.25070313 -8.27148438 20.28515625 C-12 13.4927097 -12 13.4927097 -12 11 C-10.390625 9.4140625 -10.390625 9.4140625 -8.25 7.625 C-5.3756268 5.18382134 -2.61456008 2.72350008 0 0 Z " fill="#5B5B5B" transform="translate(307,210)"/>
<path d="M0 0 C0.33 0 0.66 0 1 0 C1 33.99 1 67.98 1 103 C0.01 103 -0.98 103 -2 103 C-2.495 91.12 -2.495 91.12 -3 79 C-4.32 79.99 -5.64 80.98 -7 82 C-13.14901961 82.65882353 -13.14901961 82.65882353 -15.9375 80.5 C-18.36353143 78.73561351 -19.14965064 78.87289385 -22.0625 79 C-26 79 -26 79 -27.9375 78 C-29.69184465 74.69770418 -29.82214345 71.73498752 -30 68 C-29.01 67.01 -29.01 67.01 -28 66 C-27.01 66.66 -26.02 67.32 -25 68 C-24.8125 71.625 -24.8125 71.625 -25 75 C-23.35 75.33 -21.7 75.66 -20 76 C-19.01 74.68 -18.02 73.36 -17 72 C-16.34 73.65 -15.68 75.3 -15 77 C-11.17430526 77.90016347 -8.88317251 78.42635914 -5.28125 76.6875 C-1.75356552 72.53159773 -2.45976758 68.51237072 -2.6875 63.25 C-2.71005859 62.26644531 -2.73261719 61.28289062 -2.75585938 60.26953125 C-2.81471195 57.8448053 -2.89686569 55.42318017 -3 53 C-6.10797627 56.63816046 -7.259305 58.20285743 -7 63 C-9 65 -9 65 -12 65.25 C-15 65 -15 65 -17 63 C-16.625 59.375 -16.625 59.375 -16 56 C-15.44570312 55.81824219 -14.89140625 55.63648438 -14.3203125 55.44921875 C-13.59585938 55.19785156 -12.87140625 54.94648438 -12.125 54.6875 C-11.40570313 54.44386719 -10.68640625 54.20023438 -9.9453125 53.94921875 C-7.66005095 53.03664453 -7.66005095 53.03664453 -6 50 C-5.34 50 -4.68 50 -4 50 C-4 49.34 -4 48.68 -4 48 C-3.34 48 -2.68 48 -2 48 C-2 42.39 -2 36.78 -2 31 C-1.67 31 -1.34 31 -1 31 C-0.67 20.77 -0.34 10.54 0 0 Z " fill="#1D5179" transform="translate(103,175)"/>
<path d="M0 0 C0 3.96 0 7.92 0 12 C-0.928125 12.268125 -1.85625 12.53625 -2.8125 12.8125 C-5.93222517 13.7115755 -5.93222517 13.7115755 -7.4375 15.5 C-9.84676555 17.81289493 -12.8341841 18.12060669 -16 19 C-16.33 19.66 -16.66 20.32 -17 21 C-19.31979381 22.03101947 -21.65429915 23.02936517 -24 24 C-24.99 24.66 -25.98 25.32 -27 26 C-28.32 26 -29.64 26 -31 26 C-32 25 -33 24 -34 23 C-34.845625 22.835 -35.69125 22.67 -36.5625 22.5 C-39 22 -39 22 -41 19 C-40.62068453 15.96547627 -39.74959319 14.62438979 -38 12 C-36.02880859 11.65942383 -36.02880859 11.65942383 -33.6484375 11.70703125 C-32.79765625 11.71669922 -31.946875 11.72636719 -31.0703125 11.73632812 C-30.18085937 11.76146484 -29.29140625 11.78660156 -28.375 11.8125 C-27.02921875 11.83280273 -27.02921875 11.83280273 -25.65625 11.85351562 C-23.43690211 11.88893075 -21.21874812 11.93831539 -19 12 C-18.67 11.01 -18.34 10.02 -18 9 C-16.3777546 7.29006566 -14.70586575 5.62652316 -13 4 C-12.13375 2.8553125 -12.13375 2.8553125 -11.25 1.6875 C-7.66412519 -1.00190611 -4.3944497 -0.25849704 0 0 Z " fill="#F4F8F9" transform="translate(101,191)"/>
<path d="M0 0 C2.5 0.25 2.5 0.25 4.5 2.25 C6.70900423 2.137477 8.91724256 2.0097894 11.125 1.875 C17.92090497 1.84068993 21.48293194 4.36643915 26.27294922 9.03857422 C29.44062268 12.36631059 32.53025116 15.74415288 35.5 19.25 C34.51 20.24 33.52 21.23 32.5 22.25 C32.14397705 21.79560547 31.7879541 21.34121094 31.42114258 20.87304688 C24.45321043 11.68491775 24.45321043 11.68491775 14.78125 6.1484375 C8.81285742 6.01217836 8.81285742 6.01217836 3.7734375 8.77734375 C3.35320312 9.26332031 2.93296875 9.74929687 2.5 10.25 C0.3125 10.9375 0.3125 10.9375 -1.5 11.25 C-1.5 12.57 -1.5 13.89 -1.5 15.25 C-0.84 15.724375 -0.18 16.19875 0.5 16.6875 C2.5 18.25 2.5 18.25 2.90234375 20.63671875 C2.5 23.25 2.5 23.25 0.56640625 25.0234375 C-0.67302734 25.81621094 -0.67302734 25.81621094 -1.9375 26.625 C-5.2810292 28.9066494 -5.2810292 28.9066494 -7.3203125 32.25390625 C-7.63257539 34.36934881 -7.63257539 34.36934881 -7.5 37.25 C-9.48 37.25 -11.46 37.25 -13.5 37.25 C-13.17 36.59 -12.84 35.93 -12.5 35.25 C-11.84 35.25 -11.18 35.25 -10.5 35.25 C-10.37625 34.1775 -10.2525 33.105 -10.125 32 C-9.5 28.25 -9.5 28.25 -8.375 26.125 C-7.25492476 24.24286053 -7.25492476 24.24286053 -8.0625 22.0625 C-8.63600948 18.37565333 -7.53545442 16.04814137 -6.26171875 12.6015625 C-5.51432568 10.29422594 -5.16954136 8.22047641 -4.9375 5.8125 C-4.44330571 1.78834652 -4.16505323 0.41650532 0 0 Z " fill="#3282B2" transform="translate(66.5,160.75)"/>
<path d="M0 0 C2.625 0.375 2.625 0.375 5 1 C5.33 1.99 5.66 2.98 6 4 C4.8203125 5.515625 4.8203125 5.515625 3.125 7.25 C-1.51519175 12.96431021 -0.9817263 19.98289822 -1 27 C-4.86157869 26.34872864 -7.80150332 25.51156926 -10.828125 22.859375 C-13.37671111 18.81561838 -12.80705368 13.54827928 -12 9 C-9.54032441 4.74681096 -6.48512515 3.79405006 -2 2 C-1.34 1.34 -0.68 0.68 0 0 Z " fill="#F4F7F9" transform="translate(80,215)"/>
<path d="M0 0 C3 1 3 1 4 3 C9.61 3.33 15.22 3.66 21 4 C21.33 4.99 21.66 5.98 22 7 C16.06 7 10.12 7 4 7 C1.82233925 11.35532149 1.96960445 12.46625958 3 17 C4.65 17 6.3 17 8 17 C6.68 17.33 5.36 17.66 4 18 C4 18.66 4 19.32 4 20 C5.65 20.33 7.3 20.66 9 21 C8.67 22.65 8.34 24.3 8 26 C6.35 25.67 4.7 25.34 3 25 C3 24.01 3 23.02 3 22 C2.34 22 1.68 22 1 22 C0.67 22.99 0.34 23.98 0 25 C0.0928125 23.1746875 0.0928125 23.1746875 0.1875 21.3125 C0.17357898 17.36589062 -0.46768507 15.14356337 -3 12 C-3.886875 11.34 -4.77375 10.68 -5.6875 10 C-8 8 -8 8 -8.375 5.3125 C-8 3 -8 3 -7 2 C-4.66702567 1.95907063 -2.33294775 1.95758277 0 2 C0 1.34 0 0.68 0 0 Z " fill="#266791" transform="translate(59,196)"/>
<path d="M0 0 C5.61 0 11.22 0 17 0 C15.83908172 9.28734622 15.83908172 9.28734622 10.27734375 13.72265625 C6.65373578 15.75510875 4.069183 15.50864787 0 15 C0 10.05 0 5.1 0 0 Z " fill="#626262" transform="translate(326,228)"/>
<path d="M0 0 C0.33 0 0.66 0 1 0 C1.13946662 23.35529515 0.80629419 46.65821205 0 70 C-0.33 70 -0.66 70 -1 70 C-1 64.06 -1 58.12 -1 52 C-3.97 54.475 -3.97 54.475 -7 57 C-7.33397787 60.12586875 -7.33397787 60.12586875 -7 63 C-9 65 -9 65 -12 65.25 C-15 65 -15 65 -17 63 C-16.625 59.375 -16.625 59.375 -16 56 C-15.44570312 55.81824219 -14.89140625 55.63648438 -14.3203125 55.44921875 C-13.59585938 55.19785156 -12.87140625 54.94648438 -12.125 54.6875 C-11.40570313 54.44386719 -10.68640625 54.20023438 -9.9453125 53.94921875 C-7.66005095 53.03664453 -7.66005095 53.03664453 -6 50 C-5.34 50 -4.68 50 -4 50 C-4 49.34 -4 48.68 -4 48 C-3.34 48 -2.68 48 -2 48 C-2 42.39 -2 36.78 -2 31 C-1.67 31 -1.34 31 -1 31 C-0.67 20.77 -0.34 10.54 0 0 Z " fill="#225C87" transform="translate(103,175)"/>
<path d="M0 0 C2.86585822 -0.23882152 4.58593819 -0.22204747 7.14746094 1.15161133 C9 3 9 3 9.45410156 5.63549805 C9.4331543 6.66715088 9.41220703 7.69880371 9.390625 8.76171875 C9.37773438 9.87998047 9.36484375 10.99824219 9.3515625 12.15039062 C9.31804687 13.31763672 9.28453125 14.48488281 9.25 15.6875 C9.23195313 16.86634766 9.21390625 18.04519531 9.1953125 19.25976562 C9.14811859 22.17398926 9.08229077 25.08659031 9 28 C4.33081055 24.39282227 4.33081055 24.39282227 3 23 C2.8125 19.9375 2.8125 19.9375 3 17 C2.51273437 16.41863281 2.02546875 15.83726562 1.5234375 15.23828125 C-0.57324212 12.15777504 -0.29801269 9.93375646 -0.1875 6.25 C-0.16042969 5.07953125 -0.13335937 3.9090625 -0.10546875 2.703125 C-0.07066406 1.81109375 -0.03585938 0.9190625 0 0 Z " fill="#F2F9FA" transform="translate(92,137)"/>
<path d="M0 0 C0.0810206 2.10353495 0.13919907 4.20795952 0.1875 6.3125 C0.23970703 8.07013672 0.23970703 8.07013672 0.29296875 9.86328125 C0 13 0 13 -1.09375 14.90625 C-3.9679239 16.55536617 -6.41004236 16.28485023 -9.6875 16.1875 C-11.45673828 16.14689453 -11.45673828 16.14689453 -13.26171875 16.10546875 C-14.16535156 16.07066406 -15.06898437 16.03585938 -16 16 C-16.140625 13.64453125 -16.140625 13.64453125 -16 11 C-13.75 8.6875 -13.75 8.6875 -11 7 C-9.68 7 -8.36 7 -7 7 C-6.731875 6.401875 -6.46375 5.80375 -6.1875 5.1875 C-3.37142857 0 -3.37142857 0 0 0 Z " fill="#F1F8FA" transform="translate(88,138)"/>
<path d="M0 0 C0.66 0 1.32 0 2 0 C2.12375 1.3921875 2.12375 1.3921875 2.25 2.8125 C3.1372756 6.58342128 4.03857543 6.80281403 7 9 C7.3984375 11.37890625 7.3984375 11.37890625 7 14 C5.06640625 15.7734375 5.06640625 15.7734375 2.5625 17.375 C-0.7810292 19.6566494 -0.7810292 19.6566494 -2.8203125 23.00390625 C-3.13257539 25.11934881 -3.13257539 25.11934881 -3 28 C-4.98 28 -6.96 28 -9 28 C-8.67 27.34 -8.34 26.68 -8 26 C-7.34 26 -6.68 26 -6 26 C-5.87625 24.9275 -5.7525 23.855 -5.625 22.75 C-5 19 -5 19 -3.875 16.875 C-2.75492476 14.99286053 -2.75492476 14.99286053 -3.5625 12.8125 C-4.22863749 8.53018757 -2.64534426 4.94231001 -1 1 C-0.67 0.67 -0.34 0.34 0 0 Z " fill="#3477A3" transform="translate(62,170)"/>
<path d="M0 0 C3.125 0.375 3.125 0.375 5.5625 1.9375 C7.125 4.375 7.125 4.375 7.0625 8 C6.125 11.375 6.125 11.375 3.125 13.375 C0.125 13.75 0.125 13.75 -2.875 13.375 C-4.8125 11.8125 -4.8125 11.8125 -5.875 9.375 C-5.42669811 0.70783019 -5.42669811 0.70783019 0 0 Z " fill="#1EBDED" transform="translate(331.875,179.625)"/>
<path d="M0 0 C2.46948242 1.48339844 2.46948242 1.48339844 5 4 C5.44649301 6.95664794 5.58732562 9.32262546 5.48828125 12.265625 C5.48120651 13.05902283 5.47413177 13.85242065 5.46684265 14.66986084 C5.43891048 17.19754365 5.37617989 19.72298988 5.3125 22.25 C5.28741535 23.96611378 5.26460246 25.68226238 5.24414062 27.3984375 C5.18908839 31.59981671 5.10282863 35.79952952 5 40 C4.01 40.495 4.01 40.495 3 41 C2.896875 40.05125 2.79375 39.1025 2.6875 38.125 C2.31460705 34.70892499 2.31460705 34.70892499 -1 33 C-1 32.34 -1 31.68 -1 31 C-0.01 31 0.98 31 2 31 C2 22.42 2 13.84 2 5 C1.01 4.67 0.02 4.34 -1 4 C-0.67 2.68 -0.34 1.36 0 0 Z " fill="#2E7BA7" transform="translate(99,135)"/>
<path d="M0 0 C1.65322266 0.01740234 1.65322266 0.01740234 3.33984375 0.03515625 C4.99693359 0.04869141 4.99693359 0.04869141 6.6875 0.0625 C7.54214844 0.07410156 8.39679688 0.08570313 9.27734375 0.09765625 C9.60734375 0.75765625 9.93734375 1.41765625 10.27734375 2.09765625 C9.61734375 2.75765625 8.95734375 3.41765625 8.27734375 4.09765625 C6.62734375 3.76765625 4.97734375 3.43765625 3.27734375 3.09765625 C3.60734375 10.02765625 3.93734375 16.95765625 4.27734375 24.09765625 C2.62734375 24.42765625 0.97734375 24.75765625 -0.72265625 25.09765625 C-1.05265625 23.44765625 -1.38265625 21.79765625 -1.72265625 20.09765625 C-0.40265625 19.43765625 0.91734375 18.77765625 2.27734375 18.09765625 C1.28734375 17.76765625 0.29734375 17.43765625 -0.72265625 17.09765625 C-0.72265625 12.80765625 -0.72265625 8.51765625 -0.72265625 4.09765625 C-1.38265625 4.09765625 -2.04265625 4.09765625 -2.72265625 4.09765625 C-3.05265625 3.10765625 -3.38265625 2.11765625 -3.72265625 1.09765625 C-2.72265625 0.09765625 -2.72265625 0.09765625 0 0 Z " fill="#4390BE" transform="translate(88.72265625,133.90234375)"/>
<path d="M0 0 C0.33 0 0.66 0 1 0 C1.79348625 4.87348823 2.11813526 9.52940184 2.09765625 14.46484375 C2.0962413 15.14301651 2.09482635 15.82118927 2.09336853 16.51991272 C2.08782745 18.65915578 2.07528653 20.79828925 2.0625 22.9375 C2.05747736 24.39908702 2.0529158 25.86067569 2.04882812 27.32226562 C2.03787745 30.88154526 2.02065445 34.44076191 2 38 C1.22269531 37.9690625 0.44539063 37.938125 -0.35546875 37.90625 C-3.52888971 38.01874941 -4.66972278 38.92864247 -7 41 C-7 40.34 -7 39.68 -7 39 C-7.66 38.67 -8.32 38.34 -9 38 C-7.3125 36 -7.3125 36 -5 34 C-3.35 34 -1.7 34 0 34 C0 30.04 0 26.08 0 22 C-2.97 22 -5.94 22 -9 22 C-8.67 21.34 -8.34 20.68 -8 20 C-5.36 20 -2.72 20 0 20 C-0.185625 18.88625 -0.37125 17.7725 -0.5625 16.625 C-1 13 -1 13 0 11 C0.07033769 9.12620395 0.0843022 7.24998898 0.0625 5.375 C0.04896484 3.87066406 0.04896484 3.87066406 0.03515625 2.3359375 C0.02355469 1.56507813 0.01195313 0.79421875 0 0 Z " fill="#286F9A" transform="translate(101,169)"/>
<path d="M0 0 C0.66 0 1.32 0 2 0 C2.02578125 0.97582031 2.0515625 1.95164063 2.078125 2.95703125 C2.13484375 4.22933594 2.1915625 5.50164062 2.25 6.8125 C2.29640625 8.07707031 2.3428125 9.34164062 2.390625 10.64453125 C2.67256221 14.07152839 2.67256221 14.07152839 5.046875 15.94921875 C5.69140625 16.29597656 6.3359375 16.64273438 7 17 C6.34 18.98 5.68 20.96 5 23 C2.625 23.625 2.625 23.625 0 24 C-0.66 23.34 -1.32 22.68 -2 22 C-1.625 18.375 -1.625 18.375 -1 15 C-1.66 14.67 -2.32 14.34 -3 14 C-2.01 14 -1.02 14 0 14 C0 9.38 0 4.76 0 0 Z " fill="#285A83" transform="translate(79,228)"/>
<path d="M0 0 C5.75 1.75 5.75 1.75 8 4 C8.66 3.34 9.32 2.68 10 2 C10.36 7.4 10.36 7.4 8.875 9.875 C6.11909116 11.52854531 4.14924548 11.39365568 1 11 C-0.9375 9.9375 -0.9375 9.9375 -2 8 C-1.55555556 1.55555556 -1.55555556 1.55555556 0 0 Z " fill="#3A779C" transform="translate(73,183)"/>
<path d="M0 0 C3.24848225 0.27667682 4.10823784 1.17340579 6.33789062 3.5 C6.99853516 4.17675781 7.65917969 4.85351562 8.33984375 5.55078125 C9.01337891 6.26621094 9.68691406 6.98164063 10.38085938 7.71875 C11.07373047 8.43417969 11.76660156 9.14960938 12.48046875 9.88671875 C14.18821636 11.65335421 15.88322625 13.43057487 17.56835938 15.21875 C16.57835938 16.20875 15.58835937 17.19875 14.56835938 18.21875 C14.21233643 17.76959229 13.85631348 17.32043457 13.48950195 16.85766602 C6.5360374 7.46604522 6.5360374 7.46604522 -3.25585938 2 C-6.40563665 1.80595432 -9.30572448 1.80853841 -12.43164062 2.21875 C-12.43164062 1.88875 -12.43164062 1.55875 -12.43164062 1.21875 C-10.86948514 1.04888455 -9.30689542 0.88301036 -7.74414062 0.71875 C-6.87402344 0.6259375 -6.00390625 0.533125 -5.10742188 0.4375 C-3.40439481 0.29827443 -1.70183615 0.15309691 0 0 Z " fill="#327EA9" transform="translate(84.431640625,164.78125)"/>
<path d="M0 0 C0.66 0 1.32 0 2 0 C2.268125 0.598125 2.53625 1.19625 2.8125 1.8125 C3.84776452 4.02996775 3.84776452 4.02996775 5.5546875 5.33203125 C7.4868632 7.56186645 7.29922644 8.9636649 7.3125 11.875 C7.53316376 15.621384 7.53316376 15.621384 9.390625 18.765625 C11.21043284 20.29819284 11.21043284 20.29819284 14 22 C13.67 23.32 13.34 24.64 13 26 C11.85050412 25.21366078 10.70551011 24.42073742 9.5625 23.625 C8.92441406 23.18414062 8.28632812 22.74328125 7.62890625 22.2890625 C6 21 6 21 5 19 C4.92934383 16.95944995 4.91578024 14.91665743 4.9375 12.875 C4.94652344 11.77929688 4.95554687 10.68359375 4.96484375 9.5546875 C4.97644531 8.71164063 4.98804687 7.86859375 5 7 C2.525 6.01 2.525 6.01 0 5 C0 3.35 0 1.7 0 0 Z " fill="#195886" transform="translate(60,218)"/>
<path d="M0 0 C0.66 0.99 1.32 1.98 2 3 C-4.15034169 10.48291572 -4.15034169 10.48291572 -8 13 C-8.66 12.34 -9.32 11.68 -10 11 C-8.89718873 9.72799029 -7.79269231 8.45744147 -6.6875 7.1875 C-6.07261719 6.47980469 -5.45773438 5.77210938 -4.82421875 5.04296875 C-3.26665665 3.29863261 -1.67341125 1.63221959 0 0 Z " fill="#2B6E99" transform="translate(89,190)"/>
<path d="M0 0 C1.97558594 1.13989258 1.97558594 1.13989258 4 3 C4.45410156 5.63549805 4.45410156 5.63549805 4.390625 8.76171875 C4.37773438 9.87998047 4.36484375 10.99824219 4.3515625 12.15039062 C4.31804687 13.31763672 4.28453125 14.48488281 4.25 15.6875 C4.23195313 16.86634766 4.21390625 18.04519531 4.1953125 19.25976562 C4.14811859 22.17398926 4.08229077 25.08659031 4 28 C3.67 28 3.34 28 3 28 C2.98541748 27.34402832 2.97083496 26.68805664 2.95581055 26.01220703 C2.88148586 23.04919969 2.78477631 20.08733883 2.6875 17.125 C2.66494141 16.09246094 2.64238281 15.05992187 2.61914062 13.99609375 C2.58369141 13.00996094 2.54824219 12.02382812 2.51171875 11.0078125 C2.48553467 10.09660645 2.45935059 9.18540039 2.43237305 8.24658203 C2.28968994 7.50520996 2.14700684 6.76383789 2 6 C1.01 5.34 0.02 4.68 -1 4 C-0.67 2.68 -0.34 1.36 0 0 Z " fill="#3B8DBB" transform="translate(99,135)"/>
<path d="M0 0 C2.34375 0.21875 2.34375 0.21875 3.92578125 1.53125 C5.06510417 3.09375 6.20442708 4.65625 7.34375 6.21875 C6.68375 6.87875 6.02375 7.53875 5.34375 8.21875 C4.786875 7.414375 4.23 6.61 3.65625 5.78125 C-0.02520808 1.97061796 -4.99673552 2.46669899 -9.98828125 2.26171875 C-10.86871094 2.24753906 -11.74914062 2.23335937 -12.65625 2.21875 C-12.65625 1.88875 -12.65625 1.55875 -12.65625 1.21875 C-11.09409452 1.04888455 -9.5315048 0.88301036 -7.96875 0.71875 C-7.09863281 0.6259375 -6.22851562 0.533125 -5.33203125 0.4375 C-3.5546442 0.29219537 -1.77729997 0.14636588 0 0 Z " fill="#2C76A4" transform="translate(84.65625,164.78125)"/>
<path d="M0 0 C2.125 0.375 2.125 0.375 4 1 C4.625 2.875 4.625 2.875 5 5 C4.34 5.66 3.68 6.32 3 7 C0.875 6.625 0.875 6.625 -1 6 C-1.625 4.125 -1.625 4.125 -2 2 C-1.34 1.34 -0.68 0.68 0 0 Z " fill="#E9F2F5" transform="translate(56,198)"/>
<path d="M0 0 C0.66 0 1.32 0 2 0 C1.67 3.3 1.34 6.6 1 10 C-0.98 10 -2.96 10 -5 10 C-4.67 9.34 -4.34 8.68 -4 8 C-3.34 8 -2.68 8 -2 8 C-1.855625 6.865625 -1.71125 5.73125 -1.5625 4.5625 C-1 1 -1 1 0 0 Z " fill="#1D6391" transform="translate(58,188)"/>
<path d="M0 0 C0.33 0 0.66 0 1 0 C1.33 3.63 1.66 7.26 2 11 C3.32 11.33 4.64 11.66 6 12 C6 13.65 6 15.3 6 17 C5.4225 16.38125 4.845 15.7625 4.25 15.125 C2.19750179 13.18652947 0.56633418 12.09985751 -2 11 C-1.67 10.67 -1.34 10.34 -1 10 C-0.76712992 8.31816052 -0.58735834 6.6287584 -0.4375 4.9375 C-0.35371094 4.01839844 -0.26992187 3.09929687 -0.18359375 2.15234375 C-0.12300781 1.44207031 -0.06242187 0.73179687 0 0 Z " fill="#296B97" transform="translate(76,172)"/>
<path d="M0 0 C2.64752004 2.57784846 4.94432065 4.91648098 7 8 C5.1875 8.6875 5.1875 8.6875 3 9 C1.25 7.6875 1.25 7.6875 0 6 C0 5.34 0 4.68 0 4 C-0.99 3.67 -1.98 3.34 -3 3 C-2.01 2.01 -1.02 1.02 0 0 Z " fill="#408FBA" transform="translate(94,158)"/>
<path d="M0 0 C0.99 0 1.98 0 3 0 C2.42676569 3.86933162 0.61046448 6.15222057 -2 9 C-2.66 9 -3.32 9 -4 9 C-4 8.34 -4 7.68 -4 7 C-4.66 6.67 -5.32 6.34 -6 6 C-4 4 -2 2 0 0 Z " fill="#378DBF" transform="translate(83,136)"/>
<path d="M0 0 C1.65 0.33 3.3 0.66 5 1 C4.67 2.65 4.34 4.3 4 6 C2.35 5.67 0.7 5.34 -1 5 C-0.67 3.35 -0.34 1.7 0 0 Z " fill="#F2F8F9" transform="translate(78,245)"/>
<path d="M0 0 C1.65 0.33 3.3 0.66 5 1 C4.67 2.65 4.34 4.3 4 6 C2.35 5.67 0.7 5.34 -1 5 C-0.67 3.35 -0.34 1.7 0 0 Z " fill="#F5FAFB" transform="translate(75,185)"/>
<path d="M0 0 C1.65 0.33 3.3 0.66 5 1 C4.67 2.65 4.34 4.3 4 6 C2.35 5.67 0.7 5.34 -1 5 C-0.67 3.35 -0.34 1.7 0 0 Z " fill="#E6F4F7" transform="translate(88,153)"/>
<path d="M0 0 C2.0625 0.4375 2.0625 0.4375 4 1 C3.67 2.65 3.34 4.3 3 6 C1.35 5.67 -0.3 5.34 -2 5 C-1.125 1.125 -1.125 1.125 0 0 Z " fill="#F2F8FA" transform="translate(64,216)"/>
<path d="M0 0 C1.32 0.33 2.64 0.66 4 1 C3.01 2.485 3.01 2.485 2 4 C1.70547416 6.38677076 1.5071783 8.78626094 1.375 11.1875 C1.30023438 12.45980469 1.22546875 13.73210937 1.1484375 15.04296875 C1.09945312 16.01878906 1.05046875 16.99460938 1 18 C0.67 18 0.34 18 0 18 C0 13.38 0 8.76 0 4 C-0.66 3.67 -1.32 3.34 -2 3 C-1.34 2.01 -0.68 1.02 0 0 Z " fill="#3A6B8D" transform="translate(81,224)"/>
<path d="M0 0 C0.33 0 0.66 0 1 0 C1 6.6 1 13.2 1 20 C0.01 20.33 -0.98 20.66 -2 21 C-2.33 20.34 -2.66 19.68 -3 19 C-2.67 18.34 -2.34 17.68 -2 17 C-1.34 17 -0.68 17 0 17 C0 11.39 0 5.78 0 0 Z " fill="#1B567F" transform="translate(101,206)"/>
<path d="M0 0 C2.4375 1.3125 2.4375 1.3125 3.25 3.4375 C3.311875 4.05625 3.37375 4.675 3.4375 5.3125 C0.4375 5.3125 0.4375 5.3125 -2.25 2.8125 C-3.013125 1.9875 -3.77625 1.1625 -4.5625 0.3125 C-2.5625 -0.6875 -2.5625 -0.6875 0 0 Z " fill="#2F658C" transform="translate(70.5625,237.6875)"/>
<path d="M0 0 C1.0625 1.875 1.0625 1.875 2 4 C1.67 4.66 1.34 5.32 1 6 C0.7724985 7.87056791 0.59037189 9.74685958 0.4375 11.625 C0.31181641 13.12933594 0.31181641 13.12933594 0.18359375 14.6640625 C0.12300781 15.43492187 0.06242187 16.20578125 0 17 C-0.33 17 -0.66 17 -1 17 C-1.04898438 16.14535156 -1.09796875 15.29070312 -1.1484375 14.41015625 C-1.22320312 13.30542969 -1.29796875 12.20070312 -1.375 11.0625 C-1.44460937 9.96035156 -1.51421875 8.85820312 -1.5859375 7.72265625 C-1.72257812 6.82417969 -1.85921875 5.92570313 -2 5 C-2.66 4.67 -3.32 4.34 -4 4 C-3.01 3.67 -2.02 3.34 -1 3 C-0.67 2.01 -0.34 1.02 0 0 Z " fill="#386B90" transform="translate(68,218)"/>
<path d="M0 0 C1.98 0.495 1.98 0.495 4 1 C3.67 5.95 3.34 10.9 3 16 C2.67 16 2.34 16 2 16 C2 12.04 2 8.08 2 4 C1.34 4 0.68 4 0 4 C-0.33 3.01 -0.66 2.02 -1 1 C-0.67 0.67 -0.34 0.34 0 0 Z " fill="#63A4CA" transform="translate(86,134)"/>
<path d="M0 0 C2.00720923 0.28674418 4.0085944 0.61866701 6 1 C4.68 1.33 3.36 1.66 2 2 C2.33 2.99 2.66 3.98 3 5 C2.360625 5.103125 1.72125 5.20625 1.0625 5.3125 C0.381875 5.539375 -0.29875 5.76625 -1 6 C-1.33 6.99 -1.66 7.98 -2 9 C-1.125 1.125 -1.125 1.125 0 0 Z " fill="#457699" transform="translate(61,212)"/>
<path d="M0 0 C0.86625 0.556875 0.86625 0.556875 1.75 1.125 C-0.725 2.61 -0.725 2.61 -3.25 4.125 C-4.24 3.135 -5.23 2.145 -6.25 1.125 C-2.80384615 -1.09038462 -2.80384615 -1.09038462 0 0 Z " fill="#376E97" transform="translate(77.25,215.875)"/>
<path d="M0 0 C0.33 0.66 0.66 1.32 1 2 C1.66 2.33 2.32 2.66 3 3 C1.35 4.32 -0.3 5.64 -2 7 C-2.66 6.34 -3.32 5.68 -4 5 C-2.68 3.35 -1.36 1.7 0 0 Z " fill="#39769F" transform="translate(83,196)"/>
<path d="M0 0 C0.66 0 1.32 0 2 0 C1.67 2.64 1.34 5.28 1 8 C0.34 8 -0.32 8 -1 8 C-1.04241723 5.66705225 -1.04092937 3.33297433 -1 1 C-0.67 0.67 -0.34 0.34 0 0 Z " fill="#1F70A2" transform="translate(62,170)"/>
<path d="M0 0 C0.99 0.99 1.98 1.98 3 3 C1.68 3.99 0.36 4.98 -1 6 C-1.66 5.34 -2.32 4.68 -3 4 C-2.01 2.68 -1.02 1.36 0 0 Z " fill="#35678C" transform="translate(97,225)"/>
<path d="M0 0 C0.99 0.99 1.98 1.98 3 3 C1.68 3.99 0.36 4.98 -1 6 C-1 5.34 -1 4.68 -1 4 C-1.66 3.67 -2.32 3.34 -3 3 C-2.01 2.01 -1.02 1.02 0 0 Z " fill="#3F799C" transform="translate(95,204)"/>
<path d="M0 0 C1.09658936 3.28976808 0.79953138 4.71303767 0 8 C-0.66 8 -1.32 8 -2 8 C-2 5.69 -2 3.38 -2 1 C-1.34 0.67 -0.68 0.34 0 0 Z " fill="#1B7DB2" transform="translate(72,146)"/>
</svg>
